<?xml version="1.0" standalone="no"?>
<!DOCTYPE svg PUBLIC "-//W3C//DTD SVG 20010904//EN"
 "http://www.w3.org/TR/2001/REC-SVG-20010904/DTD/svg10.dtd">
<svg version="1.0" xmlns="http://www.w3.org/2000/svg"
 width="48.000000pt" height="48.000000pt" viewBox="0 0 48.000000 48.000000"
 preserveAspectRatio="xMidYMid meet">

<g transform="translate(0.000000,48.000000) scale(0.100000,-0.100000)"
fill="#000000" stroke="none">
<path d="M76 351 c-7 -10 41 -48 49 -39 3 2 -6 15 -19 27 -15 14 -26 18 -30
12z"/>
<path d="M239 314 c-10 -12 -23 -14 -51 -10 -30 5 -38 3 -38 -9 0 -8 12 -18
28 -22 l27 -7 -24 -6 c-45 -10 -37 -31 10 -29 86 3 176 -51 231 -139 11 -18
23 -31 26 -28 8 8 -46 83 -84 116 -19 16 -51 34 -73 41 -35 10 -40 16 -44 48
-2 20 1 39 7 43 26 18 52 4 110 -56 33 -35 74 -73 91 -83 16 -10 -10 21 -59
70 -93 91 -127 107 -157 71z m-4 -34 c7 -12 -2 -12 -30 0 -19 8 -19 9 2 9 12
1 25 -3 28 -9z"/>
<path d="M55 280 c-4 -6 7 -10 24 -10 17 0 31 5 31 10 0 6 -11 10 -24 10 -14
0 -28 -4 -31 -10z"/>
<path d="M89 231 c-13 -11 -21 -22 -18 -25 3 -4 17 2 30 13 13 11 21 22 18 25
-3 4 -17 -2 -30 -13z"/>
</g>
</svg>
